<svg xmlns="http://www.w3.org/2000/svg" id="Capa_1" width="512" height="512" enable-background="new 0 0 497.004 497.004" viewBox="0 0 497.004 497.004"><g><path fill="#ff8b47" d="m321.334 206.452h-118.731l88.729 266.982 26.252-15.157c2.321-1.34 3.75-3.816 3.75-6.495z"/><path fill="#f9b348" d="m180.102 206.452 68.398 290.55c1.296 0 2.592-.334 3.753-1.005l39.078-22.563v-266.982z"/><path fill="#f3da49" d="m175.668 206.452v245.33c0 2.679 1.429 5.156 3.75 6.495l65.337 37.721c1.159.669 2.452 1.004 3.746 1.005v-290.55h-72.833z"/><path fill="#14cfff"/><path fill="#f9eda4" d="m244.755 162.237-65.34 37.721c-5 2.886-5 10.103 0 12.989l65.34 37.72c2.32 1.339 5.179 1.339 7.499 0l65.332-37.721c4.999-2.886 4.999-10.102 0-12.989l-65.332-37.721c-2.32-1.339-5.179-1.339-7.499.001z"/><path fill="#5515a6" d="m145.669 367.721h-118.731l88.729 105.712 26.252-15.157c2.32-1.34 3.75-3.816 3.75-6.495z"/><path fill="#793bcc" d="m4.438 367.721 68.398 129.28c1.296 0 2.592-.334 3.753-1.005l39.078-22.563v-105.712z"/><path fill="#9255e3" d="m.003 367.721v84.06c0 2.679 1.429 5.156 3.75 6.495l65.337 37.721c1.159.669 2.452 1.004 3.746 1.005v-129.28h-72.833z"/><path fill="#14cfff"/><path fill="#ae7df0" d="m69.09 323.506-65.34 37.721c-5 2.886-5 10.103 0 12.989l65.34 37.72c2.32 1.339 5.179 1.339 7.499 0l65.332-37.72c4.999-2.886 4.999-10.102 0-12.989l-65.332-37.721c-2.32-1.339-5.179-1.339-7.499 0z"/><path fill="#3b88f5" d="m497.003 45.221h-118.732l88.729 428.212 26.252-15.157c2.32-1.34 3.75-3.816 3.75-6.495v-406.56z"/><path fill="#28abfa" d="m355.771 45.221 68.398 451.78c1.296 0 2.592-.334 3.753-1.005l39.078-22.563v-428.212z"/><path fill="#14cfff" d="m351.337 45.221v406.56c0 2.679 1.429 5.156 3.75 6.495l65.337 37.721c1.159.669 2.452 1.004 3.746 1.005v-451.781z"/><path fill="#14cfff"/><path fill="#8ae7ff" d="m420.424 1.006-65.34 37.721c-5 2.886-5 10.103 0 12.989l65.34 37.721c2.32 1.339 5.179 1.339 7.499 0l65.332-37.72c4.999-2.886 4.999-10.102 0-12.989l-65.332-37.721c-2.321-1.34-5.179-1.34-7.499-.001z"/></g></svg>